<?xml version="1.0" encoding="iso-8859-1"?>
<!-- Uploaded to: SVG Repo, www.svgrepo.com, Generator: SVG Repo Mixer Tools -->
<svg fill="#000000" height="800px" width="800px" version="1.1" id="Capa_1" xmlns="http://www.w3.org/2000/svg" xmlns:xlink="http://www.w3.org/1999/xlink" 
	 viewBox="0 0 591.6 591.6" xml:space="preserve">
<g>
	<g>
		<path d="M295.8,0C132.6,0,0,132.6,0,295.8s132.6,295.8,295.8,295.8S591.6,459,591.6,295.8S459,0,295.8,0z M295.8,571.2
			c-151.776,0-275.4-123.624-275.4-275.4S144.024,20.4,295.8,20.4s275.4,123.624,275.4,275.4S447.576,571.2,295.8,571.2z"/>
		<path d="M459,183.6c-5.712,0-10.2,4.488-10.2,10.2v65.076L300.288,184.62c-3.264-1.632-6.936-1.428-9.996,0.408
			c-3.06,1.836-4.896,5.1-4.896,8.772v65.076L137.088,184.62c-3.06-1.632-6.936-1.428-9.996,0.408
			c-3.06,1.836-4.896,5.1-4.896,8.772v204c0,3.468,1.836,6.732,4.896,8.772c1.632,1.02,3.468,1.428,5.304,1.428
			c1.632,0,3.06-0.408,4.488-1.02l148.512-74.256V397.8c0,3.468,1.836,6.732,4.896,8.772c1.632,1.02,3.468,1.428,5.304,1.428
			c1.632,0,3.06-0.408,4.488-1.02l148.512-74.256V397.8c0,5.712,4.488,10.2,10.2,10.2s10.2-4.488,10.2-10.2v-81.6v-40.8v-81.6
			C469.2,188.088,464.712,183.6,459,183.6z M142.8,381.276V210.324l142.8,71.4v28.152L142.8,381.276z M306,381.276V316.2v-40.8
			v-65.076l142.8,71.4v28.152L306,381.276z"/>
		<path d="M161.16,229.5c-2.856,0-5.1,2.244-5.1,5.1V357c0,2.856,2.244,5.1,5.1,5.1s5.1-2.244,5.1-5.1V234.6
			C166.26,231.744,164.016,229.5,161.16,229.5z"/>
		<path d="M324.36,229.5c-2.856,0-5.1,2.244-5.1,5.1V357c0,2.856,2.244,5.1,5.1,5.1s5.1-2.244,5.1-5.1V234.6
			C329.46,231.744,327.216,229.5,324.36,229.5z"/>
	</g>
</g>
</svg>